# xmcd
#
# Track frame offsets:
# 225
# 17459
# 34770
# 51121
# 69729
# 76190
# 103491
# 119573
# 136525
# 158905
# 177111
#
# Disc length: 2770 seconds
#
#
# Revision: 0
# Processed by: cddbd v1.5.2PL0 Copyright (c) Steve Scherf et al.
# Submitted via: FreeRIP 2.951 
#
DISCID=8b0acf0b
DTITLE=Celeste Carballo - Live at the Roxy
DYEAR=1995
DGENRE=Blues
TTITLE0=Midnight in Memphis
TTITLE1=Maybe
TTITLE2=Move over
TTITLE3=Half moon
TTITLE4=Mercedes Benz
TTITLE5=Desconfio de la vida
TTITLE6=Que miseria
TTITLE7=Sucio gas
TTITLE8=El arbolito
TTITLE9=Los arboles prohibidos
TTITLE10=No me voy a olvidar
EXTD=www.cusquitonet.com.ar
EXTT0=
EXTT1=
EXTT2=
EXTT3=
EXTT4=
EXTT5=
EXTT6=
EXTT7=
EXTT8=
EXTT9=
EXTT10=
PLAYORDER=
